<svg width="32" height="32" viewBox="0 0 32 32" xmlns="http://www.w3.org/2000/svg"><defs><style>.cls-1{fill:#509046;}.cls-1,.cls-2,.cls-3,.cls-4,.cls-5,.cls-6,.cls-7,.cls-8,.cls-9,.cls-10,.cls-11,.cls-12,.cls-13,.cls-14,.cls-15,.cls-16,.cls-17,.cls-18,.cls-19,.cls-20,.cls-21,.cls-22,.cls-23,.cls-24,.cls-25,.cls-26,.cls-27{stroke-width:0px;}.cls-2{fill:#eaecea;}.cls-3{fill:#fbfcfb;}.cls-4{fill:#031203;}.cls-5{fill:#f2f2f2;}.cls-6{fill:#020402;}.cls-7{fill:#9b2c16;}.cls-8{fill:#200101;}.cls-9{fill:#041303;}.cls-10{fill:#061905;}.cls-11{fill:#4d9443;}.cls-12{fill:none;}.cls-13{fill:#081e07;}.cls-14{fill:#061e05;}.cls-15{fill:#4f8f45;}.cls-16{fill:#020e02;}.cls-17{fill:#f5f7f5;}.cls-18{fill:#041503;}.cls-19{fill:#4e8f44;}.cls-28{clip-path:url(#clippath);}.cls-20{fill:#4e9144;}.cls-21{fill:#4f8a47;}.cls-22{fill:#4c9541;}.cls-23{fill:#021202;}.cls-24{fill:#f8faf8;}.cls-25{fill:#0f0701;}.cls-26{fill:#f2f4f1;}.cls-27{fill:#031003;}</style><clipPath id="clippath"><circle class="cls-12" cx="16" cy="16" r="16"/></clipPath></defs><g class="cls-28"><path class="cls-22" d="M15.96,31.99c-5.12,0-10.23,0-15.35.01-.5,0-.61-.11-.61-.61.02-5.44.01-10.87.01-16.31.3-1.31,1.04-2.42,1.64-3.59.56-1.11,1.14-2.21,1.82-3.26.37-.57.83-1.04,1.28-1.52.87-.94,1.46-2.08,2.2-3.11,1.77-1.51,4.9-1.67,6.75-.36.58.41.9.97,1.11,1.61.16.51-.03.68-.58.68-1.23-.01-2.46-.32-3.7.09-.46.16-.89.32-1.25.64.81-.79,1.89-.81,2.9-.87.67-.04,1.37.11,2.05.14,1.34.07,2.1,1.03,2.85,1.96.38.47.68,1.02.91,1.58.06.13.12.32-.02.44-.14.12-.33.08-.44-.03-.47-.48-1.07-.37-1.65-.39-1.59-.06-3.18-.03-4.77-.08-1.42-.05-2.32.76-3.14,1.73-.34.4-.15.74.36.81.96.13,1.84.49,2.63,1.03,1.52,1.05,3.23,1.42,5.01,1.63.6.07,1.13-.24,1.69-.39.33-.09.72-.24.89.2.16.4-.21.54-.47.72-.89.65-1.91.36-2.85.28-.81-.06-1.63-.11-2.44-.25-.78-.13-1.47-.39-1.9-.76.71.74,1.89.79,3.02.88.89.07,1.78.28,2.69.19.19-.02.4,0,.47.22.06.2-.11.33-.23.48-.7.92-1.74,1.24-2.53,1.47,1.1-.2,2.18-.9,3.01-2.01.22-.29.62-.4.93-.61.4-.28.55-.59.1-.95-.42-.34-.52-.85-.71-1.31-.14-.32-.26-.69-.57-.84-1.07-.53-2-1.4-3.16-1.61-1.82-.34-3.65-.28-5.09,1.2-.09.09-.19.19-.3.26-.19.11-.4.2-.58,0-.17-.18-.17-.41-.02-.59.76-.9,1.56-1.76,2.87-1.77,1.09-.01,2.18-.03,3.27,0,.99.03,1.85.44,2.58,1.1.72.65,1.34,1.41,2.08,2.04.03-.06.06-.11.09-.16.22-.6,0-1.1-.38-1.53-.25-.29-.37-.57-.39-.99-.05-.88-.64-1.54-1.14-2.22-.44-.59-.41-.75.29-.99,1.41-.49,2.82-.41,4.19.12,1.12.43,2.13,1.07,2.94,1.98.05.06.09.13.12.2.13.42-.05.6-.46.6-.66,0-1.33,0-1.76,0,.58-.01,1.38.03,2.18-.02.37-.02.66.15.96.32.06.05.11.1.16.17.13.34-.01.48-.33.36-.69-.26-1.41-.17-2.12-.2-.72-.03-1.43.01-1.83.29,1.18-.45,2.62-.44,4.07,0,.5.15.64.51.61.98-.01.19-.04.39-.23.47-.22.1-.33-.1-.46-.23-1.09-1.05-2.76-1.08-4-.07-.49.49-.95,1-1.39,1.53-.47.57-.26,1.05.48,1.07,1.27.04,2.54.34,3.8.02.38-.12.74-.29,1.05-.55.16-.13.35-.31.56-.11.18.17.11.39.04.6-.04.1-.09.19-.15.28-.37.57-1.18.75-1.24,1.43.71-.53,1.14-.38,1.56.64.13.33.19.66.09,1.01-.71,2.07-1.66,2.78-3.83,2.76-3.45-.04-6.86-.38-10.23-1.15-1.22-.28-2.4-.66-3.6-.96-.41-.1-.81-.2-1.03.28-.21.45.06.76.37,1.03.63.54,1.36.92,2.1,1.27,1.5.72,2.92,1.64,4.6,1.92,1.65.28,3.31.4,4.98.34,1.09-.04,2.18-.02,3.27,0,.57,0,1.1-.07,1.63-.29.66-.27.94-.03.82.67-.04.24-.15.45-.26.66-.03.08-.07.15-.12.22-.29.34-.63.44-1.06.24-1.17-.54-1.91-.4-2.88.53-.31.29-.61.58-.94.85-.52.41-1,.72-1.72.47-.37-.13-.81-.05-1.03.38-.2.41-.02.77.23,1.1.19.25.45.44.65.7,1.14,1.49.6,3.54-1.55,3.7-.15.01-.32-.04-.45.08Z"/><path class="cls-22" d="M.01,14.44V.09C.26-.05.53.02.79.02c10.1,0,20.19,0,30.29,0q.9,0,.9.9c0,10.1,0,20.2,0,30.29,0,.26.07.53-.08.78h-2.23c-.29-.93-.46-1.92-1.15-2.68-.04-.06-.08-.12-.11-.19-.12-.38-.29-.74-.63-.98-.14-.13-.27-.26-.37-.43-.46-.99-1.33-1.55-2.22-2.08-.18-.11-.38-.19-.56-.31-.65-.43-.65-.69-.05-1.47h0c.4-.51.62-1.06.39-1.73-.15-.44.28-.7.42-1.04.46-.45.06-1.01.17-1.5.07-.26.22-.46.39-.66.8-.93.8-1.02.18-2.03-.24-.59-.45-1.19-.96-1.62-.36-.3-.28-.6.03-.87.52-.46.71-1.01.59-1.7-.09-.55,0-1.11.09-1.66.09-.59-.07-1.02-.5-1.38h.01c-.51-.24-.92-.57-1.13-1.12h0c-.27-.35-.56-.68-.96-.92-.64-.38-1.18-.88-1.48-1.59-.05-.06-.08-.12-.12-.18-.19-.43-.46-.82-.75-1.19-.05-.06-.08-.12-.12-.19-.93-1.56-2.88-1.78-4.34-1.55-.21.03-.38.17-.52.35-.29.28-.59.55-.98.7-.33.12-.6.09-.86-.19-1.11-1.22-2.6-1.28-4.1-1.28-1.1,0-2.07.36-2.91,1.08-.84.98-1.33,2.21-2.25,3.13-1.96,1.97-2.94,4.54-4.23,6.92-.16.3-.2.71-.63.81Z"/><path class="cls-22" d="M27.61,27.73c.1.06.2.12.31.18.21.41.52.76.65,1.21h0c.46.61.79,1.29,1,2.03.1.33.13.62-.2.83h-2.55c-.02-.43.4-.58.53-.86-.28.29-.5.75-1.01.86h-.64c-.51-.3-.58-.65-.13-1.07.2-.18.38-.38.47-.52-.51.47-.85,1.32-1.89,1.18-.78-.11-1.02-.48-.68-1.19.09-.19.18-.38.31-.55.13-.16.26-.33.32-.49-.18.35-.5.68-.68,1.08-.11.25-.34.32-.59.33-.65.01-1.1-.33-1.44-.85-.34-.52-.1-.98.23-1.38.62-.77,1.62-.99,2.34-1.55.15-.02-.03-.1.02,0,.02.03-.01.02-.07.05-.22.1-.33.05-.41-.19-.23-.67-.64-.84-1.31-.54-.36.16-.68.41-.99.66-.45.37-.95.57-1.55.48-.44-.07-.85-.2-.96-.69-.08-.36.14-.59.43-.78.46-.29.8-.13,1.05.2-.51-.35-.39-.73.1-1.11.5-.39.96-.8,1.54-1.11,1.02-.53,1.75-.09,2.25.64.26.37.54.62.92.82,1.07.56,2.04,1.24,2.61,2.35Z"/><path class="cls-23" d="M27.61,27.73c-.99-1.6-2.89-2.14-4.1-3.53-.77-.88-1.69-.25-2.31.32-.42.39-1.87.53-.77,1.74.28.31-.14.63-.56.79,0-.34.56-.57.13-.9-.24-.18-.51-.36-.77-.08-.16.18-.36.45-.33.65.06.4.44.44.8.49.95.13,1.48-.58,2.15-1.03.6-.41,1.19-.3,1.8,0,.49.24-.05.48.03.79.37-.25.72-.5,1.07-.74-.59.9-1.46,1.4-2.33,1.92-.92.55-1.55,1.28-.35,2.18.49.37,1.02.5,1.41-.28.31-.63.69-1.3,1.59-1.54-.47.58-.91,1.04-1.26,1.57-.23.35-.65.88-.12,1.17.42.24,1.07.34,1.53-.17.49-.54.98-1.07,1.57-1.7.06,1.2-1.94,1.27-1.11,2.62h-.48c-.08-.07-.16-.15-.27-.14-1.84.07-3.13-1.01-4.42-2.1-.12-.1-.28-.21-.31-.35-.26-1.18-1.33-1.75-1.93-2.68-.17-.26-.37-.4-.66-.25-.32.17-.23.44-.09.68.18.3.42.54.62.82.45.61.76,1.25.71,2.05-.04.55.14,1.04.63,1.38.18.13.4.29.3.58h-.32s-.04-.03-.06-.05c-.9-.72-1.77-.19-2.65.05h-.8c1.03-.49,2.41-.58,2.35-2.27-.03-.87-.55-1.4-1.06-1.96-.42-.46-.74-.96-.34-1.55.38-.57.94-.49,1.57-.36.98.2,1.39-.74,2.03-1.21,1.02-.74,1.97-1.77,3.33-.61.36.3.5-.14.75-.18-.56.8-.12,1.14.58,1.51,1.03.54,2.05,1.16,2.45,2.38Z"/><path class="cls-22" d="M19.79,31.99c-.95-.6-1.25-1.43-1.21-2.57.03-.82-.68-1.45-1.25-2.04-.26-.27-.39-.6-.21-.94.16-.3.47-.4.81-.38.39.02.42.43.63.58,1.64,1.23,1.88,3.73,4.28,4.4.71.2,1.7.37,2.37.96h-5.42Z"/><path class="cls-13" d="M.01,14.44c1.14-2.05,2.18-4.17,3.44-6.14,1.06-1.65,2.37-3.14,3.57-4.7.05.04.07.08.05.12-.02.04-.03.06-.05.06-1.09,2.38-3.29,3.97-4.41,6.34C1.82,11.8.89,13.43.01,15.08c0-.21,0-.43,0-.64Z"/><path class="cls-1" d="M16.76,31.99c.48-.32,1.14-.39,1.42-1,.43.33.86.67,1.29,1h-2.71Z"/><path class="cls-23" d="M29.36,31.99c.44-1.16-.56-1.91-.8-2.88.77.8,1.29,1.7,1.12,2.88h-.32Z"/><path class="cls-10" d="M26.33,31.99c.53-.58,1.07-1.16,1.6-1.74.06.05.12.11.18.16-.44.53-.87,1.05-1.31,1.58h-.48Z"/><path class="cls-16" d="M7.03,3.78c0-.06,0-.12,0-.17,1.52-1.63,5.28-1.7,6.98-.08.35.33.63.38,1.02.23.04.74.04,1.48.75,1.98.39.28.79.41,1.26.25,1.3-.43,2.6-.41,3.91-.07.32.08.62.13.91-.08.48,1.19,1.83,1.61,2.4,2.72-2.18-2.01-4.61-3.01-7.67-1.84,1.39,1.17,1.54,2.98,2.43,4.41.19.3.42.84-.2,1.1-.22-.62-.34-1.29-.84-1.78-.55-.54-1.08-1.12-1.78-1.07.88.81,2.1,1.49,2.63,2.84.05.3.11.6.21,1.15-1.16-1.95-2.43-3.37-4.39-4.03-2.06-.7-5.19-.09-6.35,1.26-.19.22-.5.51-.21.74.26.21.42-.2.58-.38,1.14-1.27,4.33-1.85,5.91-1.12,1.86.86,3.41,2.02,4.18,4.01.07.17.08.5-.02.59-1.68,1.36-3.18,3.04-5.5,3.36-.08.01-.17-.06-.37-.13,1.51-.68,3.21-.8,4.12-2.32-2.48-.45-5.34.32-7.19-2.26.13,0,.3-.05.34,0,1.85,2.15,4.42,1.63,6.79,1.84.2.02.44,0,.62-.07.38-.16,1.04-.34.89-.73-.19-.53-.73-.05-1.07.05-2.3.68-4.34-.09-6.24-1.21-.92-.54-1.85-.99-2.87-1.2-.7-.14-.75-.59-.48-.95.74-1.01,1.6-1.93,3.01-1.94,1.83-.01,3.66,0,5.5-.03.62-.01,1.14.15,1.57.69-.17-1.75-2.38-3.71-4.03-3.88-2.01-.2-3.89-.13-5.71,1.82.91-1.65,2.75-2.4,4.36-2.23.73.08,2.06.41,2.1-.06.09-1.13-.85-2.01-1.96-2.28-1.94-.47-3.89-.57-5.57.87Z"/><path class="cls-25" d="M25.55,21.17c-.8.72.13,2.08-.98,2.69.11-.48.51-.89.34-1.31-6,.87-11.78.75-16.97-2.92-.58-.41-1.35-.79-.9-1.68.48-.95,1.28-.38,1.89-.19,4.22,1.29,8.55,1.83,12.95,1.96,2.03.06,3.43-.68,3.98-2.72.11-.21.24-.33.48-.16,1.09,1.22,0,1.92-.66,2.71-.09.05-.15.03-.2-.06-.08-.67.65-.95.75-1.53-.05-.04-.09-.03-.12.03-.77,1.82-2.33,2.3-4.1,2.29-2.42-.02-4.83-.16-7.21-.59-2.06-.37-4.13-.73-6.12-1.42-.32-.11-.8-.36-1,.07-.19.41.28.65.58.83,1.69,1.01,3.43,1.92,5.27,2.62.87.33,1.82.35,2.74.46,2.35.3,4.71.08,7.07.03.52-.01.96-.29,1.32-.66.22-.23.41-.49.77-.51.04.02.07.04.11.06Z"/><path class="cls-6" d="M24.25,14.1c-1.36.39-2.73.11-4.09-.02-.96-.09-1.13-.69-.56-1.42.43-.56.95-1.05,1.43-1.58.12-.07.24-.1.38-.11.82.1,1.67-.05,2.45.31.11.07.17.17.18.3.09.73-.07,1.5.27,2.2.05.12.02.22-.06.31Z"/><path class="cls-4" d="M21.4,11.1c-.12,0-.24-.01-.36-.02,1.47-1.18,3.42-1.05,4.54.3.34-1.42-2.58-2.08-4.5-1-.35.2-.67.47-1.06.63.52-.83,1.29-1.29,2.26-1.33,1-.04,2.01-.12,3,.21.39.13-.01-.18.09-.23.7.22.88.53.7,1.37-.27,1.25.17,2.61-.89,3.76-.16.17.75,1.34,1.17,2.05-.16.05-.32.11-.48.16.02-2.35-1.61-1.15-2.9-1.05.57-.58,1.25-.18,1.5-.81-.32-.04-.64-.08-1.06-.14.51-.45,1.14,0,1.53-.48.31-.38.74-.68.73-1.24-.48.28-.94.55-1.41.82,0-.09,0-.18,0-.27.08-.48.8-.58.74-1.05-.06-.44-.7-.41-.95-.76-.06-.09-.1-.18-.11-.29,0-.09,0-.18,0-.28.4-.25.68.17,1.08.17-.59-.81-1.41-.78-2.23-.72-.47.03-.9.3-1.38.2Z"/><path class="cls-27" d="M21.37,15.47c.27.62,1.04.87,1.08,1.8-.86-1.01-1.55-1.95-2.64-2.52.94.13,1.8.5,2.85.26-.38.62-.88.25-1.28.46Z"/><path class="cls-9" d="M24.25,8.54c.38.38.75.75,1.13,1.13-1.45-.55-2.91-.45-4.62.06,1.05-.92,2.07-.69,3.03-.7.4,0,.59-.05.47-.48Z"/><path class="cls-18" d="M9.42,17.11c-1.47.03-2.44.03-3.06,1.02,0-1.01,1.22-1.53,3.06-1.02Z"/><path class="cls-14" d="M6.66,16.46c.8-.67,1.25-.73,2.19-.65-.84.25-1.27.38-2.19.65Z"/><path class="cls-22" d="M21.86,5.83c.13.42.24.75-.46.49-1.48-.53-2.98-.6-4.49-.04-.8.29-1.42-.29-1.75-.77-.28-.41-.82-1.12-.14-1.75.26-.19.51-.37.77-.56,1.05-.79,2.19-.56,3.29-.2.83.27,1.58.73,1.98,1.57h0c.27.42.53.85.81,1.28h0Z"/><path class="cls-8" d="M25.5,19.54c.06,0,.12,0,.18,0,.01.55.54,1.13-.13,1.62,0,0-.03-.05-.03-.05-.2-.35-.41-.5-.8-.2-.41.31-.9.47-1.41.48-2.33.05-4.67.14-6.98-.36-.78-.17-1.57-.25-2.37-.26-1.76-.04-3.33-.83-4.97-1.35-.04-.01-.06-.03-.07-.04-.3-.24-.84-.45-.59-.89.23-.41.66-.03.99.09,1.79.65,3.56,1.39,5.53,1.34,1.17-.03,2.29.41,3.46.52,1.62.15,3.23.07,4.85.08.5,0,.92-.21,1.31-.51.31-.23.59-.56,1.05-.48Z"/><path class="cls-16" d="M21.07,4.56c-1.46-1.6-3.17-2.26-5.28-1.37,1.09-1.36,4.49-.48,5.28,1.37Z"/><path class="cls-16" d="M21.86,5.84c-.27-.43-.54-.86-.81-1.29.42.33.7.76.81,1.29Z"/><path class="cls-23" d="M28.56,29.12c-.22-.4-.43-.8-.65-1.21.35.33.67.67.65,1.21Z"/><path class="cls-15" d="M20.26,27.95c0-.28,2-1.8,2.23-1.67.06.03.11.2.09.22-.7.68-1.41,1.34-2.11,2.01-.07-.08-.16-.15-.19-.24-.03-.09,0-.21-.01-.31Z"/><path class="cls-21" d="M23.54,26.59c-.3-.26-.16-.19-.16-.13-.01.17-.04.36-.14.5-.6.9-1.78,1.24-2.19,2.33,0,.02-.18.02-.23-.02-.09-.08-.22-.29-.21-.3.95-.79,1.91-1.56,2.93-2.38Z"/><path class="cls-11" d="M15.98,11.1c-2.37.1-4.58-.17-6.72.44-.12.03-.28-.07-.41-.11.13-.22.21-.48.39-.65,1-.95,4.24-1.26,5.43-.54.4.24.78.51,1.32.86Z"/><path class="cls-3" d="M15.43,11.48c2.16-.21,2.34,1.1,2.46,1.96.06.41-1.17.67-1.91.68-.31,0-.95-.17-.81-.28.82-.66-.55-2.11.26-2.36Z"/><path class="cls-20" d="M18.83,12.21c-.84-1.06-2.49-2.52-3.34-2.95,1.86-.36,3.37.98,3.33,2.95,0,0,0,0,0,0Z"/><path class="cls-26" d="M11.62,11.5c-.48,1.66-1.28.37-1.94.24.63-.08,1.26-.15,1.94-.24Z"/><path class="cls-2" d="M14.69,12.51c0,.42-.24.53-.56.54-.27.01-.5-.1-.5-.37,0-.39.32-.54.64-.55.2-.01.48.09.43.38Z"/><path class="cls-7" d="M25.5,19.54c-1.9,2.09-4.44,1.39-6.66,1.18-2.9-.27-5.91-.32-8.67-1.51-.57-.25-1.15-.48-1.76-.64,1.18,1.07,2.74,1.5,4.19,1.7,3.47.47,6.94,1.14,10.47.86.62-.05,1.2-.13,1.69-.57.22-.2.45-.61.77-.4.36.24.03.63-.02.95-1.47,2.26-3.84,1.36-5.82,1.53-4.35.36-8.28-1-11.85-3.46-.38-.26-.79-.56-.53-1.09.27-.54.72-.27,1.11-.15,4.83,1.39,9.71,2.28,14.77,1.95,1.75-.12,2.46-1.32,2.96-2.78q.5.59-.65,2.44Z"/><path class="cls-19" d="M21.4,11.1c1.93-.94,3.19-.64,4.35,1.17-.71-.32-1.27-.58-1.82-.83-.84-.11-1.69-.23-2.53-.34Z"/><path class="cls-24" d="M23.93,11.72c.13.09.26.17.38.27.37.3,1.22.28,1.13.72-.09.44-.77.75-1.2,1.12-.36,0-.79.02-.38-.52.4-.52-.47-1.08.06-1.58Z"/><path class="cls-5" d="M20.47,12.15c-.14.67-.24,1.14-.35,1.61-.17-.09-.47-.17-.48-.28-.05-.55.34-.88.82-1.34Z"/><path class="cls-17" d="M23.3,12.74c0,.24-.1.4-.35.42-.28.02-.48-.14-.42-.4.03-.15.23-.33.38-.37.23-.06.38.11.39.36Z"/></g></svg>