<svg width="32" height="32" viewBox="0 0 32 32" xmlns="http://www.w3.org/2000/svg"><defs><style>.cls-1{fill:#ca2929;stroke-width:0px;}.cls-2{fill:#0e0f10;stroke:#202022;stroke-width:2px;}</style></defs><circle class="cls-2" cx="16" cy="16" r="15"/><path class="cls-1" d="m15,7.55l.22-.37.1-.18h.11s0,0,0,0c.15,0,.29,0,.44,0,.15,0,.29,0,.44,0,0,0,0,0,0,0h.11l.1.18.22.37-.19,5.08.45.58-.6,7.77h-.16s0,.02,0,.02h-.73s0,0,0,0h0s-.16-.01-.16-.01l-.6-7.77.45-.58-.19-5.08Z"/><path class="cls-1" d="m12.57,10.36l.85,3.34s0,0,0,0l-1.01,1.08s0,0,0,0l.95,6.21s.14,0,.26,0c.1,0,.19,0,.19,0,0,0,0,0,0,0h.61s0,0,0,0h0s0,0,0,0c0,0,0,0,0,0h0s-.86-12.14-.86-12.14c0,0,0,0,0,0,0,0,0,0,0,0,0,0,0,0,0,0,0,0,0,0,0,0l-.97,1.5s0,0,0,0Z"/><path class="cls-1" d="m12.63,20.99l-1.71-8.03s0,0,0,0c0,0,0,0,0,0,0,0,0,0,0,0,0,0,0,0,0,0,0,0,0,0,0,0l-.65.99s0,0,0,0h0s0,0,0,0l.68,2.11h0s0,0,0,0l-.75,1.04h0s0,0,0,0l1.13,3.87s0,0,0,0c0,0,0,0,0,0h1.3s0,0,0,0c0,0,0,0,0,0,0,0,0,0,0,0,0,0,0,0,0,0Z"/><path class="cls-1" d="m8.61,18.37l-.54-.94s0-.01,0-.02l.59-.9s0,0,0,0c0,0,0,0,0,0h0s0,0,0,0c0,0,0,0,0,0l1.64,4.48s0,0,0,0h0s0,0,0,0c0,0,0,0,0,0,0,0,0,0,0,0h-1.33s0,0-.01,0c0,0,0,0,0,0l-.92-1.49s0-.02,0-.03c.02-.06.14-.26.26-.47.14-.23.29-.48.31-.55,0-.03,0-.08,0-.08Z"/><path class="cls-1" d="m7.3,20l.45.99s0,0,0,0c0,0,0,0,0,0h0s0,0,0,0h-.45s-.02,0-.02,0c0,0-.5,0-.82,0-.18,0-.45,0-.45,0l.88-.68s0,0,0,0,0,0,0,0l.4-.31h0s0,0,0,0h0s0,0,0,0c0,0,0,0,0,0,0,0,0,0,0,0Z"/><path class="cls-1" d="m18.35,13.7l.85-3.34s0,0,0,0l-.97-1.5s0,0,0,0c0,0,0,0,0,0,0,0,0,0,0,0s0,0,0,0l-.86,12.14s0,0,0,0h0s0,0,0,0h0s0,0,0,0c0,0,0,0,0,0h.61s0,0,0,0h0s0,0,0,0c0,0,.09,0,.19,0,.12,0,.26,0,.26,0l.95-6.21s0,0,0,0h0s-1.01-1.08-1.01-1.08c0,0,0,0,0,0Z"/><path class="cls-1" d="m19.15,20.99l1.71-8.03s0,0,0,0c0,0,0,0,0,0,0,0,0,0,0,0,0,0,0,0,0,0l.65.99s0,0,0,0c0,0,0,0,0,0l-.68,2.11s0,0,0,0l.75,1.04s0,0,0,0l-1.13,3.87s0,0,0,0c0,0,0,0,0,0h-1.3s0,0,0,0c0,0,0,0,0,0,0,0,0,0,0,0,0,0,0,0,0,0Z"/><path class="cls-1" d="m23.17,18.37l.54-.94s0-.01,0-.02l-.59-.9s0,0,0,0c0,0,0,0,0,0,0,0,0,0,0,0,0,0,0,0,0,0l-1.64,4.48s0,0,0,0,0,0,0,0c0,0,0,0,0,0,0,0,0,0,0,0h1.33s0,0,.01,0c0,0,0,0,0,0l.92-1.49s0-.02,0-.03c-.02-.06-.14-.26-.26-.47-.14-.23-.29-.48-.31-.55,0-.03,0-.08,0-.08Z"/><path class="cls-1" d="m24.7,20l-.45.99s0,0,0,0h0s0,0,0,0c0,0,0,0,0,0h.45s.02,0,.02,0c0,0,.5,0,.82,0,.18,0,.45,0,.45,0l-.88-.68s0,0,0,0c0,0,0,0,0,0l-.4-.31s0,0,0,0h0s0,0,0,0c0,0,0,0,0,0,0,0,0,0,0,0Z"/></svg>